<svg width="2546.000000" height="437.000000" viewBox="0 0 2546 437" fill="none" xmlns="http://www.w3.org/2000/svg" xmlns:xlink="http://www.w3.org/1999/xlink">
	<desc>
			Created with Pixso.
	</desc>
	<defs/>
	<path id="Vector" d="M182.84 0L124.66 0C108.29 0 92.07 3.23 76.95 9.5C61.83 15.77 48.08 24.97 36.51 36.57C24.93 48.16 15.75 61.92 9.48 77.07C3.22 92.22 0 108.46 0 124.85C0 141.25 3.22 157.49 9.48 172.63C15.75 187.78 24.93 201.55 36.51 213.14C48.08 224.73 61.83 233.93 76.95 240.21C92.07 246.48 108.29 249.71 124.66 249.71L208.88 249.71C211.54 249.71 213.7 247.55 213.7 244.88L213.7 192.11C213.7 189.44 211.54 187.28 208.88 187.28L124.66 187.29C116.47 187.29 108.36 185.67 100.8 182.53C93.24 179.4 86.37 174.8 80.58 169C74.79 163.2 70.2 156.32 67.07 148.75C63.93 141.17 62.32 133.05 62.32 124.85C62.32 116.65 63.93 108.53 67.07 100.96C70.2 93.39 74.79 86.5 80.58 80.71C86.37 74.91 93.24 70.31 100.8 67.17C108.36 64.03 116.47 62.42 124.66 62.42L137.71 62.42C167.05 62.04 191.44 38.09 191.44 8.61C191.44 3.85 187.59 0 182.84 0Z" fill="#878CFF" fill-opacity="1.000000" fill-rule="nonzero"/>
	<path id="Vector" d="M387.33 187.28L303.11 187.28C300.45 187.28 298.29 189.44 298.29 192.11L298.29 244.88C298.29 247.55 300.45 249.71 303.11 249.71L387.33 249.71C395.52 249.71 403.63 251.32 411.19 254.46C418.75 257.6 425.62 262.19 431.41 267.99C437.2 273.79 441.79 280.67 444.93 288.25C448.06 295.82 449.67 303.94 449.67 312.14C449.67 320.34 448.06 328.46 444.93 336.03C441.79 343.6 437.2 350.49 431.41 356.29C425.62 362.08 418.75 366.68 411.19 369.82C403.63 372.96 395.52 374.57 387.34 374.57L63.13 374.57C58.38 374.57 54.53 378.42 54.53 383.18C54.53 412.9 78.59 437 108.27 437L387.34 437C403.71 437 419.92 433.77 435.04 427.49C450.16 421.22 463.91 412.02 475.48 400.43C487.06 388.83 496.24 375.07 502.51 359.92C508.77 344.77 512 328.53 512 312.14C512 295.74 508.77 279.51 502.51 264.36C496.24 249.21 487.06 235.44 475.48 223.85C463.91 212.26 450.16 203.06 435.04 196.78C419.92 190.51 403.71 187.28 387.33 187.28Z" fill="#878CFF" fill-opacity="1.000000" fill-rule="evenodd"/>
	<path id="Vector" d="M457.73 53.81C457.73 58.57 453.89 62.42 449.14 62.42C400.2 62.42 301.07 62.42 296.06 62.42C291.06 62.42 287.16 66.33 287.16 71.34C287.16 75.98 287.16 321.73 287.16 358.77C287.16 361.43 285 363.42 282.34 363.42L229.65 363.42C226.99 363.42 224.83 361.43 224.83 358.77C224.83 321.73 224.83 75.98 224.83 71.34C224.83 66.33 220.93 62.42 215.92 62.42C210.91 62.42 161.69 62.42 137.71 62.42C167.05 62.04 191.44 38.09 191.44 8.61C191.44 3.85 187.59 0 182.84 0L404 0C433.68 0 457.73 24.09 457.73 53.81Z" fill="#666CFF" fill-opacity="1.000000" fill-rule="evenodd"/>
	<path id="SpaceTheme" d="M1769.87 105.61L1769.87 324.5L1824.58 324.5L1824.58 235.48Q1824.58 232.45 1825.17 229.55Q1826.14 224.76 1828.72 220.29Q1829.67 218.67 1830.96 217.42Q1835.46 213.05 1844.19 213.05Q1852.08 213.05 1856.47 216.97Q1858 218.32 1859.1 220.15Q1861.24 223.6 1862.33 227.35Q1863.46 231.25 1863.46 235.48L1863.46 324.5L1918.16 324.5L1918.16 224.58Q1918.16 222.93 1918.09 221.28Q1917.57 209.95 1913.52 198.78Q1911.43 192.93 1908.04 187.98Q1904.01 182.09 1898.12 177.47Q1887.36 168.96 1868.66 168.96Q1855.94 168.96 1847.57 173.04Q1839.27 177.05 1834.21 182.68Q1829.22 188.3 1825.98 193.43L1824.58 193.43L1824.58 105.61L1769.87 105.61ZM1622.7 159.19L1622.7 324.5L1677.96 324.5L1677.96 159.19L1742.51 159.19L1742.51 111.38L1558.15 111.38L1558.15 159.19L1622.7 159.19ZM1987.98 320.77Q2003.45 327.38 2024.48 327.38Q2044.02 327.38 2057.1 321.89Q2070.25 316.41 2078.27 308.39Q2086.35 300.31 2090.36 292.43Q2094.44 284.49 2095.84 279L2097.32 273.52L2047.19 273.52L2045.43 276.82Q2043.74 280.13 2038.82 283.43Q2033.97 286.74 2024.48 286.74Q2014.45 286.74 2008.12 281.9Q2006.59 280.73 2005.28 279.28Q2001.41 274.96 1999.48 269.9Q1998.05 266.15 1997.69 261.99L2098.15 261.99L2098.15 249.61Q2098.15 223.95 2088.67 205.95Q2082.65 194.54 2073.62 186.55Q2068.39 181.93 2062.15 178.46Q2045.15 168.96 2022.72 168.96Q2001.98 168.96 1986.86 175.78Q1972.03 182.4 1962.28 193.49Q1962.09 193.71 1961.9 193.93Q1956.85 199.77 1953.14 206.37Q1949.66 212.54 1947.34 219.38Q1943.27 231.59 1942.72 243.96Q1942.63 245.9 1942.63 247.85Q1942.63 254.23 1943.53 260.49Q1944.73 268.91 1947.56 277.1Q1949.81 283.65 1953.15 289.58Q1957.09 296.6 1962.53 302.77Q1962.67 302.93 1962.82 303.09Q1972.81 314.25 1987.98 320.77ZM2122.67 171.85L2122.67 324.5L2177.37 324.5L2177.37 231.19Q2177.37 224.83 2180.13 220.08Q2180.63 219.21 2181.24 218.39Q2182.18 217.11 2183.37 216.14Q2187.15 213.05 2193.47 213.05Q2200.39 213.05 2204.35 216.48Q2205.33 217.33 2206.12 218.39Q2207.03 219.55 2207.73 220.82Q2210.21 225.32 2210.21 231.19L2210.21 324.5L2264.9 324.5L2264.9 231.19Q2264.9 224.83 2267.68 220.08Q2268.18 219.21 2268.78 218.39Q2269.69 217.16 2270.83 216.21Q2274.64 213.05 2281.08 213.05Q2287.88 213.05 2291.81 216.41Q2292.84 217.29 2293.67 218.39Q2294.57 219.55 2295.26 220.82Q2297.75 225.32 2297.75 231.19L2297.75 324.5L2352.45 324.5L2352.45 213.61Q2352.45 212.87 2352.43 212.13Q2352.12 202.55 2347.95 193.08Q2346.49 189.69 2344.47 186.67Q2340.38 180.54 2334.03 175.93Q2324.54 168.96 2309 168.96Q2296.34 168.96 2287.12 173.32Q2277.92 177.61 2271.87 183.8Q2265.83 189.99 2262.31 195.47L2261.47 195.47Q2260.78 193.75 2259.94 192.11Q2255.59 183.52 2247.33 176.91Q2237.56 168.96 2220.26 168.96Q2205.01 168.96 2194.95 175.43Q2187.76 180.06 2182.77 186.41Q2180.77 188.94 2179.12 191.75L2177.37 191.75L2177.37 171.85L2122.67 171.85ZM2422.29 320.77Q2437.76 327.38 2458.78 327.38Q2478.33 327.38 2491.4 321.89Q2504.55 316.41 2512.57 308.39Q2520.65 300.31 2524.65 292.43Q2528.74 284.49 2530.14 279L2531.62 273.52L2481.49 273.52L2479.73 276.82Q2478.05 280.13 2473.12 283.43Q2468.27 286.74 2458.78 286.74Q2448.76 286.74 2442.43 281.9Q2440.89 280.73 2439.59 279.28Q2435.71 274.96 2433.78 269.9Q2432.35 266.15 2431.99 261.99L2532.47 261.99L2532.47 249.61Q2532.47 223.95 2522.98 205.95Q2516.96 194.54 2507.93 186.55Q2502.7 181.93 2496.47 178.46Q2479.45 168.96 2457.02 168.96Q2436.28 168.96 2421.15 175.78Q2406.34 182.4 2396.58 193.49Q2396.38 193.71 2396.2 193.93Q2391.15 199.77 2387.44 206.37Q2383.96 212.54 2381.64 219.38Q2377.58 231.59 2377.02 243.96Q2376.94 245.9 2376.94 247.85Q2376.94 254.23 2377.83 260.49Q2379.03 268.91 2381.86 277.1Q2384.12 283.65 2387.45 289.58Q2391.38 296.6 2396.84 302.77Q2396.98 302.93 2397.12 303.09Q2407.11 314.25 2422.29 320.77ZM2046.06 231.75L1997.41 231.75Q1998.18 220.74 2004.07 214.98Q2004.65 214.41 2005.28 213.89Q2008.72 211.1 2012.66 209.66Q2016.85 208.13 2021.59 208.13Q2031.16 208.13 2037.42 212.67Q2038.29 213.31 2039.1 214.03Q2039.79 214.65 2040.42 215.32Q2045.81 221.16 2046.06 231.75ZM2480.37 231.75L2431.71 231.75Q2432.48 220.74 2438.37 214.98Q2438.96 214.41 2439.59 213.89Q2443.03 211.1 2446.96 209.66Q2451.14 208.13 2455.89 208.13Q2465.46 208.13 2471.72 212.67Q2472.6 213.31 2473.4 214.03Q2474.1 214.65 2474.72 215.32Q2480.11 221.16 2480.37 231.75Z" fill="#666CFF" fill-opacity="1.000000" fill-rule="evenodd"/>
	<path id="SpaceTheme" d="M699.21 322.53Q712.92 327.38 731.9 327.38Q757.21 327.38 774.51 318.59Q789.44 311.01 798.03 298.92Q799.39 297 800.6 294.96Q803.89 289.4 805.95 283.41Q809.39 273.43 809.39 262.27Q809.39 244.69 801.3 232.46L801.3 232.46Q799.37 229.54 797.12 226.89Q789.94 218.44 779.5 212.77Q765.86 205.25 749.2 201.52L718.96 194.35Q704.83 191.18 696.46 184.71Q692.56 181.67 690.48 177.67Q688.1 173.09 688.1 167.28Q688.1 164.69 688.61 162.21Q690.35 153.91 697.87 146.82Q707.71 137.6 727.61 137.6Q741.96 137.6 750.46 142.39Q758.97 147.1 763.12 153.42Q767.34 159.75 768.46 164.53L769.66 169.25L802.43 169.25L801.3 163.06Q800.18 156.87 796.24 147.8Q792.37 138.73 784.28 129.8Q776.27 120.87 762.7 114.68Q749.2 108.5 728.46 108.5Q707.15 108.5 690.56 115.88Q677.8 121.52 669.27 130.99Q666.76 133.78 664.61 136.9Q663.44 138.61 662.41 140.41Q655.26 152.92 655.26 169.53Q655.26 187.1 663.49 198.64Q665.65 201.66 668.16 204.36Q675.22 211.94 685.07 216.92Q698.5 223.67 714.32 227.18L742.59 233.79Q758.97 237.52 767.48 244.62Q770.17 246.84 772 249.62Q775.99 255.65 775.99 264.31Q775.99 271.47 773.28 277.4Q770.43 283.63 764.6 288.5Q753.21 297.99 733.03 297.99Q719.53 297.99 710.74 294.12Q701.95 290.25 696.6 284.63Q691.26 279 688.66 273.38Q686.13 267.75 685.21 263.89L684.37 259.95L650.13 259.95L650.97 264.87Q651.82 269.79 654.42 277.46Q657.02 285.05 662.36 293.7Q667.71 302.35 676.64 310.01Q685.57 317.6 699.21 322.53ZM843.62 171.85L843.62 380.96L876.46 380.96L876.46 301.71L878.22 301.71Q881.1 306.07 886.72 312.12C890.47 316.15 895.56 319.71 901.98 322.81Q911.61 327.38 926.31 327.38Q943.33 327.38 956.26 320.63Q964.9 316.07 971.56 309.52Q974.88 306.25 977.71 302.49Q979.59 299.97 981.25 297.33Q987.13 287.98 990.36 276.96Q992.9 268.47 993.91 259.8Q994.58 254.04 994.58 248.21Q994.58 241.5 993.71 234.91Q992.66 227.06 990.36 219.38Q987.03 208 980.86 198.45Q979.37 196.13 977.71 193.93Q974.57 189.73 970.83 186.16Q964.43 180.05 956.26 175.78Q943.33 168.96 926.31 168.96Q911.61 168.96 901.98 173.6C895.56 176.65 890.47 180.19 886.72 184.22Q881.1 190.27 878.22 194.63L876.46 194.63L876.46 171.85L843.62 171.85ZM1118.52 173.6Q1108.89 168.96 1094.47 168.96Q1077.25 168.96 1064.38 175.78Q1057.18 179.58 1051.31 184.83Q1046.73 188.93 1042.93 193.93Q1040.9 196.59 1039.11 199.4Q1033.29 208.57 1030.06 219.38Q1027.88 226.85 1026.84 234.47Q1025.92 241.28 1025.92 248.21Q1025.92 254.24 1026.62 260.19Q1027.63 268.66 1030.06 276.96Q1033.18 287.41 1038.73 296.36Q1040.68 299.52 1042.93 302.49Q1046.41 307.04 1050.56 310.86Q1056.73 316.55 1064.38 320.63Q1077.25 327.38 1094.47 327.38Q1108.89 327.38 1118.52 322.81Q1128.22 318.17 1133.92 312.12Q1139.68 306.07 1142.29 301.71L1144.04 301.71L1144.04 324.5L1176.88 324.5L1176.88 171.85L1144.04 171.85L1144.04 194.63L1142.29 194.63Q1139.68 190.27 1133.92 184.22Q1128.22 178.18 1118.52 173.6ZM1255.79 320.63Q1270.21 327.38 1289.47 327.38Q1308.46 327.38 1320.97 321.75Q1333.56 316.13 1341.01 307.83Q1348.53 299.46 1352.26 291.1Q1355.99 282.73 1356.97 276.96L1358.03 271.2L1326.88 271.2L1325.61 275.56Q1324.35 279.85 1320.55 285.61Q1316.82 291.38 1309.43 295.74Q1302.13 300.03 1289.75 300.03Q1276.06 300.03 1266.66 293.69Q1265.96 293.22 1265.28 292.71Q1262.17 290.36 1259.53 287.55Q1253.9 281.56 1250.44 273.52Q1249.43 271.16 1248.63 268.73Q1245.39 259.01 1245.39 248.21Q1245.39 236.93 1248.88 226.88Q1249.59 224.82 1250.44 222.82Q1253.93 214.67 1259.68 208.66Q1262.26 205.96 1265.28 203.7Q1266.07 203.1 1266.91 202.55Q1276.25 196.32 1289.75 196.32Q1302.13 196.32 1309.43 200.68Q1316.82 204.96 1320.55 210.73Q1324.35 216.5 1325.61 220.85L1326.88 225.14L1358.03 225.14L1356.97 219.38Q1355.99 213.61 1352.26 205.25Q1348.53 196.88 1341.01 188.58Q1333.56 180.21 1320.97 174.59Q1308.46 168.96 1289.47 168.96Q1270.21 168.96 1255.79 175.78Q1243.31 181.63 1234.52 190.95Q1233.16 192.4 1231.89 193.93Q1227.81 198.77 1224.63 204.13Q1220.35 211.29 1217.61 219.38Q1214.54 228.47 1213.43 237.8Q1212.82 242.97 1212.82 248.21Q1212.82 252.76 1213.29 257.27Q1214.31 267.23 1217.61 276.96Q1220.22 284.68 1224.24 291.59Q1227.57 297.32 1231.89 302.49Q1232.79 303.56 1233.73 304.6Q1242.75 314.46 1255.79 320.63ZM1431.3 320.63Q1445.29 327.38 1464.56 327.38Q1481.57 327.38 1493.39 322.39Q1505.2 317.32 1512.37 309.87Q1519.61 302.35 1523.48 294.89Q1527.35 287.37 1528.75 282.31L1530.23 277.25L1499.72 277.25L1498.1 280.76Q1496.55 284.21 1492.75 288.85Q1489.03 293.42 1482.14 297Q1475.25 300.59 1464.56 300.59Q1452.07 300.59 1443.15 294.94Q1438.72 292.14 1435.17 287.93Q1431.59 283.67 1429.1 278.85Q1424.17 269.36 1423.43 257.7L1531.71 257.7L1531.71 248.77Q1531.71 222.54 1522.92 204.82Q1515.96 190.8 1504.82 182.19Q1501.88 179.92 1498.66 178.03Q1497.23 177.19 1495.75 176.42Q1481.39 168.96 1463.15 168.96Q1444.45 168.96 1430.6 175.78Q1420.04 180.93 1412.34 188.86Q1409.94 191.33 1407.82 194.07Q1404.57 198.23 1401.93 202.75Q1397.3 210.66 1394.53 219.66Q1391.18 230.69 1390.45 241.89Q1390.24 245.04 1390.24 248.21Q1390.24 253.51 1390.82 258.74Q1391.84 267.95 1394.67 276.96Q1397.55 286.01 1402.3 293.94Q1404.98 298.39 1408.24 302.49Q1409.52 304.09 1410.91 305.6Q1419.29 314.77 1431.3 320.63ZM1500 234.64L1423.71 234.64Q1425.22 218.4 1433.88 208.3Q1434.9 207.12 1436.01 206.02Q1439.99 202.09 1444.73 199.63Q1452.72 195.47 1462.87 195.47Q1469.93 195.47 1476.14 197.77Q1482.54 200.14 1488.04 204.96Q1488.23 205.13 1488.42 205.3Q1498.89 214.81 1500 234.64ZM878.27 263.83Q876.46 256.23 876.46 248.21Q876.46 239.64 878.5 231.6Q879.56 227.42 881.17 223.39C884.36 215.51 889.07 209.04 895.3 203.98Q897.06 202.55 898.99 201.38Q907.35 196.32 918.79 196.32Q931.25 196.32 939.93 202.05Q941.29 202.94 942.55 203.98Q945.14 206.08 947.38 208.5Q953.23 214.84 956.69 223.39Q958.41 227.64 959.51 232.04Q961.47 239.88 961.47 248.21Q961.47 256.01 959.73 263.41Q958.58 268.27 956.69 272.96Q953.28 281.38 947.55 287.69Q945.24 290.23 942.55 292.43Q941.39 293.37 940.16 294.2Q931.41 300.03 918.79 300.03Q907.2 300.03 898.76 294.87Q896.96 293.77 895.3 292.43Q892.62 290.23 890.31 287.69Q884.58 281.38 881.17 272.96Q879.38 268.47 878.27 263.83ZM1081.72 201.43Q1090.17 196.32 1101.72 196.32Q1113.23 196.32 1121.57 201.45Q1123.43 202.59 1125.13 203.98Q1128.04 206.32 1130.5 209.07Q1136.01 215.22 1139.26 223.39Q1140.98 227.64 1142.07 232.04Q1144.04 239.88 1144.04 248.21Q1144.04 256.01 1142.3 263.41Q1141.16 268.27 1139.26 272.96Q1136.06 280.99 1130.67 287.11Q1128.14 289.98 1125.13 292.43Q1123.54 293.73 1121.81 294.8Q1113.38 300.03 1101.72 300.03Q1090.01 300.03 1081.49 294.82Q1079.72 293.74 1078.09 292.43Q1074.98 289.92 1072.37 286.96Q1067.03 280.89 1063.81 272.96Q1062.03 268.47 1060.92 263.83Q1059.11 256.23 1059.11 248.21Q1059.11 239.64 1061.15 231.6Q1062.21 227.42 1063.81 223.39Q1067.07 215.32 1072.54 209.22Q1075.07 206.39 1078.09 203.98Q1079.82 202.58 1081.72 201.43Z" fill="#878CFF" fill-opacity="1.000000" fill-rule="evenodd"/>
</svg>
